<svg width="327" height="56" viewBox="0 0 327 56" fill="none" xmlns="http://www.w3.org/2000/svg">
<rect x="0.5" y="0.5" width="326" height="55" rx="3.5" fill="#F8F8FD"/>
<rect x="0.5" y="0.5" width="326" height="55" rx="3.5" stroke="#3772FF" stroke-dasharray="12 12"/>
<g clip-path="url(#clip0_299_1256)">
<path d="M91 23L84.5 29.5C84.1022 29.8978 83.8787 30.4374 83.8787 31C83.8787 31.5626 84.1022 32.1021 84.5 32.5C84.8978 32.8978 85.4374 33.1213 86 33.1213C86.5626 33.1213 87.1022 32.8978 87.5 32.5L94 26C94.7957 25.2043 95.2426 24.1252 95.2426 23C95.2426 21.8747 94.7957 20.7956 94 20C93.2044 19.2043 92.1252 18.7573 91 18.7573C89.8748 18.7573 88.7957 19.2043 88 20L81.5 26.5C80.3065 27.6934 79.636 29.3121 79.636 31C79.636 32.6878 80.3065 34.3065 81.5 35.5C82.6935 36.6934 84.3122 37.3639 86 37.3639C87.6878 37.3639 89.3065 36.6934 90.5 35.5L97 29" stroke="#3772FF" stroke-width="2" stroke-linecap="round" stroke-linejoin="round"/>
</g>
<path d="M116.32 34L120.064 22.48H122.472L126.216 34H124.48L121.032 23.488H121.464L118.056 34H116.32ZM118.264 31.4V29.832H124.28V31.4H118.264ZM132.283 34C131.739 34.1067 131.205 34.152 130.683 34.136C130.16 34.12 129.693 34.0187 129.283 33.832C128.872 33.6453 128.563 33.352 128.355 32.952C128.168 32.5947 128.067 32.232 128.051 31.864C128.04 31.4907 128.035 31.0693 128.035 30.6V22.96H129.715V30.52C129.715 30.8667 129.717 31.168 129.723 31.424C129.733 31.68 129.789 31.896 129.891 32.072C130.083 32.4027 130.387 32.592 130.803 32.64C131.224 32.6827 131.717 32.664 132.283 32.584V34ZM126.379 26.704V25.36H132.283V26.704H126.379ZM139.048 34C138.504 34.1067 137.971 34.152 137.448 34.136C136.926 34.12 136.459 34.0187 136.048 33.832C135.638 33.6453 135.328 33.352 135.12 32.952C134.934 32.5947 134.832 32.232 134.816 31.864C134.806 31.4907 134.8 31.0693 134.8 30.6V22.96H136.48V30.52C136.48 30.8667 136.483 31.168 136.488 31.424C136.499 31.68 136.555 31.896 136.656 32.072C136.848 32.4027 137.152 32.592 137.568 32.64C137.99 32.6827 138.483 32.664 139.048 32.584V34ZM133.144 26.704V25.36H139.048V26.704H133.144ZM143.31 34.24C142.67 34.24 142.134 34.1227 141.702 33.888C141.27 33.648 140.942 33.3333 140.718 32.944C140.499 32.5493 140.39 32.1173 140.39 31.648C140.39 31.2107 140.467 30.8267 140.622 30.496C140.777 30.1653 141.006 29.8853 141.31 29.656C141.614 29.4213 141.987 29.232 142.43 29.088C142.814 28.976 143.249 28.8773 143.734 28.792C144.219 28.7067 144.729 28.6267 145.262 28.552C145.801 28.4773 146.334 28.4027 146.862 28.328L146.254 28.664C146.265 27.9867 146.121 27.4853 145.822 27.16C145.529 26.8293 145.022 26.664 144.302 26.664C143.849 26.664 143.433 26.7707 143.054 26.984C142.675 27.192 142.411 27.5387 142.262 28.024L140.702 27.544C140.915 26.8027 141.321 26.2133 141.918 25.776C142.521 25.3387 143.321 25.12 144.318 25.12C145.091 25.12 145.763 25.2533 146.334 25.52C146.91 25.7813 147.331 26.1973 147.598 26.768C147.737 27.0507 147.822 27.3493 147.854 27.664C147.886 27.9787 147.902 28.3173 147.902 28.68V34H146.422V32.024L146.71 32.28C146.353 32.9413 145.897 33.4347 145.342 33.76C144.793 34.08 144.115 34.24 143.31 34.24ZM143.606 32.872C144.081 32.872 144.489 32.7893 144.83 32.624C145.171 32.4533 145.446 32.2373 145.654 31.976C145.862 31.7147 145.998 31.4427 146.062 31.16C146.153 30.904 146.203 30.616 146.214 30.296C146.23 29.976 146.238 29.72 146.238 29.528L146.782 29.728C146.254 29.808 145.774 29.88 145.342 29.944C144.91 30.008 144.518 30.072 144.166 30.136C143.819 30.1947 143.51 30.2667 143.238 30.352C143.009 30.432 142.803 30.528 142.622 30.64C142.446 30.752 142.305 30.888 142.198 31.048C142.097 31.208 142.046 31.4027 142.046 31.632C142.046 31.856 142.102 32.064 142.214 32.256C142.326 32.4427 142.497 32.592 142.726 32.704C142.955 32.816 143.249 32.872 143.606 32.872ZM153.675 34.24C152.79 34.24 152.038 34.0427 151.419 33.648C150.801 33.2533 150.326 32.712 149.995 32.024C149.67 31.336 149.505 30.5547 149.499 29.68C149.505 28.7893 149.675 28.0027 150.011 27.32C150.347 26.632 150.827 26.0933 151.451 25.704C152.075 25.3147 152.825 25.12 153.699 25.12C154.643 25.12 155.449 25.3547 156.115 25.824C156.787 26.2933 157.23 26.936 157.443 27.752L155.779 28.232C155.614 27.7467 155.342 27.3707 154.963 27.104C154.59 26.832 154.161 26.696 153.675 26.696C153.126 26.696 152.675 26.8267 152.323 27.088C151.971 27.344 151.71 27.696 151.539 28.144C151.369 28.592 151.281 29.104 151.275 29.68C151.281 30.5707 151.483 31.2907 151.883 31.84C152.289 32.3893 152.886 32.664 153.675 32.664C154.214 32.664 154.649 32.5413 154.979 32.296C155.315 32.0453 155.571 31.688 155.747 31.224L157.443 31.624C157.161 32.4667 156.694 33.1147 156.043 33.568C155.393 34.016 154.603 34.24 153.675 34.24ZM165.137 34V29.752C165.137 29.416 165.108 29.072 165.049 28.72C164.996 28.3627 164.889 28.032 164.729 27.728C164.574 27.424 164.353 27.1787 164.065 26.992C163.782 26.8053 163.412 26.712 162.953 26.712C162.654 26.712 162.372 26.7627 162.105 26.864C161.838 26.96 161.604 27.1173 161.401 27.336C161.204 27.5547 161.046 27.8427 160.929 28.2C160.817 28.5573 160.761 28.992 160.761 29.504L159.721 29.112C159.721 28.328 159.868 27.6373 160.161 27.04C160.454 26.4373 160.876 25.968 161.425 25.632C161.974 25.296 162.638 25.128 163.417 25.128C164.014 25.128 164.516 25.224 164.921 25.416C165.326 25.608 165.654 25.8613 165.905 26.176C166.161 26.4853 166.356 26.824 166.489 27.192C166.622 27.56 166.713 27.92 166.761 28.272C166.809 28.624 166.833 28.9333 166.833 29.2V34H165.137ZM159.065 34V22.48H160.561V28.696H160.761V34H159.065ZM172.12 34V22.48H175.728C175.835 22.48 176.032 22.4827 176.32 22.488C176.613 22.4933 176.893 22.5147 177.16 22.552C178.061 22.664 178.819 22.9867 179.432 23.52C180.051 24.0533 180.517 24.7307 180.832 25.552C181.147 26.368 181.304 27.264 181.304 28.24C181.304 29.2213 181.147 30.1227 180.832 30.944C180.517 31.76 180.051 32.4347 179.432 32.968C178.819 33.496 178.061 33.816 177.16 33.928C176.893 33.9653 176.613 33.9867 176.32 33.992C176.032 33.9973 175.835 34 175.728 34H172.12ZM173.832 32.408H175.728C175.909 32.408 176.125 32.4027 176.376 32.392C176.627 32.3813 176.848 32.36 177.04 32.328C177.627 32.216 178.101 31.9627 178.464 31.568C178.832 31.168 179.101 30.6773 179.272 30.096C179.443 29.5147 179.528 28.896 179.528 28.24C179.528 27.5627 179.44 26.936 179.264 26.36C179.088 25.7787 178.816 25.2933 178.448 24.904C178.085 24.5093 177.616 24.2587 177.04 24.152C176.848 24.1147 176.624 24.0933 176.368 24.088C176.117 24.0773 175.904 24.072 175.728 24.072H173.832V32.408ZM186.919 34.24C186.055 34.24 185.306 34.0453 184.671 33.656C184.036 33.2667 183.546 32.7307 183.199 32.048C182.858 31.36 182.687 30.568 182.687 29.672C182.687 28.7707 182.863 27.9787 183.215 27.296C183.567 26.608 184.06 26.0747 184.695 25.696C185.33 25.312 186.071 25.12 186.919 25.12C187.783 25.12 188.532 25.3147 189.167 25.704C189.802 26.0933 190.292 26.6293 190.639 27.312C190.986 27.9947 191.159 28.7813 191.159 29.672C191.159 30.5733 190.983 31.368 190.631 32.056C190.284 32.7387 189.794 33.2747 189.159 33.664C188.524 34.048 187.778 34.24 186.919 34.24ZM186.919 32.664C187.746 32.664 188.362 32.3867 188.767 31.832C189.178 31.272 189.383 30.552 189.383 29.672C189.383 28.7707 189.175 28.0507 188.759 27.512C188.348 26.968 187.735 26.696 186.919 26.696C186.359 26.696 185.898 26.824 185.535 27.08C185.172 27.3307 184.903 27.68 184.727 28.128C184.551 28.5707 184.463 29.0853 184.463 29.672C184.463 30.5787 184.671 31.304 185.087 31.848C185.503 32.392 186.114 32.664 186.919 32.664ZM196.613 34.24C195.728 34.24 194.976 34.0427 194.357 33.648C193.738 33.2533 193.264 32.712 192.933 32.024C192.608 31.336 192.442 30.5547 192.437 29.68C192.442 28.7893 192.613 28.0027 192.949 27.32C193.285 26.632 193.765 26.0933 194.389 25.704C195.013 25.3147 195.762 25.12 196.637 25.12C197.581 25.12 198.386 25.3547 199.053 25.824C199.725 26.2933 200.168 26.936 200.381 27.752L198.717 28.232C198.552 27.7467 198.28 27.3707 197.901 27.104C197.528 26.832 197.098 26.696 196.613 26.696C196.064 26.696 195.613 26.8267 195.261 27.088C194.909 27.344 194.648 27.696 194.477 28.144C194.306 28.592 194.218 29.104 194.213 29.68C194.218 30.5707 194.421 31.2907 194.821 31.84C195.226 32.3893 195.824 32.664 196.613 32.664C197.152 32.664 197.586 32.5413 197.917 32.296C198.253 32.0453 198.509 31.688 198.685 31.224L200.381 31.624C200.098 32.4667 199.632 33.1147 198.981 33.568C198.33 34.016 197.541 34.24 196.613 34.24ZM205.267 34.232C204.669 34.232 204.168 34.136 203.763 33.944C203.357 33.752 203.027 33.5013 202.771 33.192C202.52 32.8773 202.328 32.536 202.195 32.168C202.061 31.8 201.971 31.44 201.923 31.088C201.875 30.736 201.851 30.4267 201.851 30.16V25.36H203.547V29.608C203.547 29.944 203.573 30.2907 203.627 30.648C203.685 31 203.792 31.328 203.947 31.632C204.107 31.936 204.328 32.1813 204.611 32.368C204.899 32.5547 205.272 32.648 205.731 32.648C206.029 32.648 206.312 32.6 206.579 32.504C206.845 32.4027 207.077 32.2427 207.275 32.024C207.477 31.8053 207.635 31.5173 207.747 31.16C207.864 30.8027 207.923 30.368 207.923 29.856L208.963 30.248C208.963 31.032 208.816 31.7253 208.523 32.328C208.229 32.9253 207.808 33.392 207.259 33.728C206.709 34.064 206.045 34.232 205.267 34.232ZM208.123 34V31.504H207.923V25.36H209.611V34H208.123ZM222.206 34L222.214 28.616C222.214 27.992 222.054 27.5067 221.734 27.16C221.414 26.808 220.993 26.632 220.47 26.632C220.15 26.632 219.857 26.7067 219.59 26.856C219.329 27 219.116 27.2187 218.95 27.512C218.79 27.8 218.71 28.1627 218.71 28.6L217.902 28.192C217.892 27.584 218.02 27.0507 218.286 26.592C218.558 26.1333 218.926 25.7787 219.39 25.528C219.854 25.272 220.374 25.144 220.95 25.144C221.884 25.144 222.606 25.424 223.118 25.984C223.63 26.544 223.886 27.288 223.886 28.216L223.878 34H222.206ZM211.846 34V25.36H213.334V27.856H213.526V34H211.846ZM217.03 34L217.038 28.648C217.038 28.0187 216.878 27.5253 216.558 27.168C216.244 26.8107 215.82 26.632 215.286 26.632C214.758 26.632 214.332 26.8133 214.006 27.176C213.686 27.5387 213.526 28.0133 213.526 28.6L212.726 28.088C212.726 27.5227 212.862 27.0187 213.134 26.576C213.406 26.1333 213.774 25.784 214.238 25.528C214.702 25.272 215.228 25.144 215.814 25.144C216.428 25.144 216.95 25.2747 217.382 25.536C217.814 25.792 218.142 26.152 218.366 26.616C218.596 27.08 218.71 27.6187 218.71 28.232L218.702 34H217.03ZM229.686 34.24C228.828 34.24 228.073 34.0533 227.422 33.68C226.777 33.3013 226.273 32.776 225.91 32.104C225.553 31.4267 225.374 30.6427 225.374 29.752C225.374 28.808 225.55 27.9893 225.902 27.296C226.26 26.6027 226.756 26.0667 227.39 25.688C228.025 25.3093 228.764 25.12 229.606 25.12C230.486 25.12 231.236 25.3253 231.854 25.736C232.473 26.1413 232.934 26.72 233.238 27.472C233.548 28.224 233.67 29.1173 233.606 30.152H231.934V29.544C231.924 28.5413 231.732 27.8 231.358 27.32C230.99 26.84 230.428 26.6 229.67 26.6C228.833 26.6 228.204 26.864 227.782 27.392C227.361 27.92 227.15 28.6827 227.15 29.68C227.15 30.6293 227.361 31.3653 227.782 31.888C228.204 32.4053 228.812 32.664 229.606 32.664C230.129 32.664 230.58 32.5467 230.958 32.312C231.342 32.072 231.641 31.7307 231.854 31.288L233.494 31.808C233.158 32.5813 232.649 33.1813 231.966 33.608C231.284 34.0293 230.524 34.24 229.686 34.24ZM226.606 30.152V28.848H232.774V30.152H226.606ZM241.231 34V29.752C241.231 29.416 241.202 29.072 241.143 28.72C241.09 28.3627 240.983 28.032 240.823 27.728C240.668 27.424 240.447 27.1787 240.159 26.992C239.876 26.8053 239.506 26.712 239.047 26.712C238.748 26.712 238.466 26.7627 238.199 26.864C237.932 26.96 237.698 27.1173 237.495 27.336C237.298 27.5547 237.14 27.8427 237.023 28.2C236.911 28.5573 236.855 28.992 236.855 29.504L235.815 29.112C235.815 28.328 235.962 27.6373 236.255 27.04C236.548 26.4373 236.97 25.968 237.519 25.632C238.068 25.296 238.732 25.128 239.511 25.128C240.108 25.128 240.61 25.224 241.015 25.416C241.42 25.608 241.748 25.8613 241.999 26.176C242.255 26.4853 242.45 26.824 242.583 27.192C242.716 27.56 242.807 27.92 242.855 28.272C242.903 28.624 242.927 28.9333 242.927 29.2V34H241.231ZM235.159 34V25.36H236.655V27.856H236.855V34H235.159ZM249.955 34C249.411 34.1067 248.877 34.152 248.355 34.136C247.832 34.12 247.365 34.0187 246.955 33.832C246.544 33.6453 246.235 33.352 246.027 32.952C245.84 32.5947 245.739 32.232 245.723 31.864C245.712 31.4907 245.707 31.0693 245.707 30.6V22.96H247.387V30.52C247.387 30.8667 247.389 31.168 247.395 31.424C247.405 31.68 247.461 31.896 247.563 32.072C247.755 32.4027 248.059 32.592 248.475 32.64C248.896 32.6827 249.389 32.664 249.955 32.584V34ZM244.051 26.704V25.36H249.955V26.704H244.051Z" fill="#515B6F"/>
<defs>
<clipPath id="clip0_299_1256">
<rect width="24" height="24" fill="white" transform="translate(76 16)"/>
</clipPath>
</defs>
</svg>
