<svg width="21" height="20" viewBox="0 0 21 20" fill="none" xmlns="http://www.w3.org/2000/svg">
<path d="M18.4477 4.81994L12.6877 0.789938C11.1177 -0.310062 8.70769 -0.250062 7.19769 0.919938L2.18769 4.82994C1.18769 5.60994 0.397692 7.20994 0.397692 8.46994V15.3699C0.397692 17.9199 2.46769 19.9999 5.01769 19.9999H15.7977C18.3477 19.9999 20.4177 17.9299 20.4177 15.3799V8.59994C20.4177 7.24994 19.5477 5.58994 18.4477 4.81994ZM11.1577 15.9999C11.1577 16.4099 10.8177 16.7499 10.4077 16.7499C9.99769 16.7499 9.65769 16.4099 9.65769 15.9999V12.9999C9.65769 12.5899 9.99769 12.2499 10.4077 12.2499C10.8177 12.2499 11.1577 12.5899 11.1577 12.9999V15.9999Z" fill="black"/>
</svg>
