<svg width="25" height="24" viewBox="0 0 25 24" fill="none" xmlns="http://www.w3.org/2000/svg">
<path d="M3.04845 11.22V15.71C3.04845 20.2 4.84845 22 9.33845 22H14.7284C19.2184 22 21.0184 20.2 21.0184 15.71V11.22" stroke="black" stroke-width="1.5" stroke-linecap="round" stroke-linejoin="round"/>
<path d="M12.0385 12C13.8685 12 15.2185 10.51 15.0385 8.68L14.3785 2H9.70846L9.03846 8.68C8.85846 10.51 10.2085 12 12.0385 12Z" stroke="black" stroke-width="1.5" stroke-linecap="round" stroke-linejoin="round"/>
<path d="M18.3485 12C20.3685 12 21.8485 10.36 21.6485 8.35L21.3685 5.6C21.0085 3 20.0085 2 17.3885 2H14.3385L15.0385 9.01C15.2085 10.66 16.6985 12 18.3485 12Z" stroke="black" stroke-width="1.5" stroke-linecap="round" stroke-linejoin="round"/>
<path d="M5.67846 12C7.32846 12 8.81846 10.66 8.97846 9.01L9.19846 6.8L9.67846 2H6.62846C4.00846 2 3.00846 3 2.64846 5.6L2.37846 8.35C2.17846 10.36 3.65846 12 5.67846 12Z" stroke="black" stroke-width="1.5" stroke-linecap="round" stroke-linejoin="round"/>
<path d="M12.0385 17C10.3685 17 9.53845 17.83 9.53845 19.5V22H14.5385V19.5C14.5385 17.83 13.7085 17 12.0385 17Z" stroke="black" stroke-width="1.5" stroke-linecap="round" stroke-linejoin="round"/>
</svg>
