<svg width="25" height="24" viewBox="0 0 25 24" fill="none" xmlns="http://www.w3.org/2000/svg">
<path d="M18.4862 13.55C18.0662 13.96 17.8262 14.55 17.8862 15.18C17.9762 16.26 18.9662 17.05 20.0462 17.05H21.9462V18.24C21.9462 20.31 20.2562 22 18.1862 22H6.70617C4.63617 22 2.94617 20.31 2.94617 18.24V11.51C2.94617 9.44001 4.63617 7.75 6.70617 7.75H18.1862C20.2562 7.75 21.9462 9.44001 21.9462 11.51V12.95H19.9262C19.3662 12.95 18.8562 13.17 18.4862 13.55Z" stroke="black" stroke-width="1.5" stroke-linecap="round" stroke-linejoin="round"/>
<path d="M2.94617 12.4101V7.8401C2.94617 6.6501 3.67617 5.59006 4.78617 5.17006L12.7262 2.17006C13.9662 1.70006 15.2962 2.62009 15.2962 3.95009V7.75008" stroke="black" stroke-width="1.5" stroke-linecap="round" stroke-linejoin="round"/>
<path d="M23.005 13.9702V16.0302C23.005 16.5802 22.565 17.0302 22.005 17.0502H20.045C18.965 17.0502 17.975 16.2602 17.885 15.1802C17.825 14.5502 18.065 13.9602 18.485 13.5502C18.855 13.1702 19.365 12.9502 19.925 12.9502H22.005C22.565 12.9702 23.005 13.4202 23.005 13.9702Z" stroke="black" stroke-width="1.5" stroke-linecap="round" stroke-linejoin="round"/>
<path d="M7.44617 12H14.4462" stroke="black" stroke-width="1.5" stroke-linecap="round" stroke-linejoin="round"/>
</svg>
