<svg width="50" height="50" viewBox="0 0 50 50" fill="none" xmlns="http://www.w3.org/2000/svg">
<path fill-rule="evenodd" clip-rule="evenodd" d="M25 50C38.8071 50 50 38.8071 50 25C50 11.1929 38.8071 0 25 0C11.1929 0 0 11.1929 0 25C0 38.8071 11.1929 50 25 50Z" fill="#292D32"/>
<path d="M22.5 26.7502C22.5 27.7202 23.25 28.5002 24.17 28.5002H26.05C26.85 28.5002 27.5 27.8202 27.5 26.9702C27.5 26.0602 27.1 25.7302 26.51 25.5202L23.5 24.4702C22.91 24.2602 22.51 23.9402 22.51 23.0202C22.51 22.1802 23.16 21.4902 23.96 21.4902H25.84C26.76 21.4902 27.51 22.2702 27.51 23.2402" stroke="white" stroke-width="1.5" stroke-linecap="round" stroke-linejoin="round"/>
<path d="M25 20.5V29.5" stroke="white" stroke-width="1.5" stroke-linecap="round" stroke-linejoin="round"/>
<path d="M35 25C35 30.52 30.52 35 25 35C19.48 35 15 30.52 15 25C15 19.48 19.48 15 25 15" stroke="white" stroke-width="1.5" stroke-linecap="round" stroke-linejoin="round"/>
<path d="M35 19V15H31" stroke="white" stroke-width="1.5" stroke-linecap="round" stroke-linejoin="round"/>
<path d="M30 20L35 15" stroke="white" stroke-width="1.5" stroke-linecap="round" stroke-linejoin="round"/>
</svg>
